# xmcd
#
# Track frame offsets:
#	150
#	17525
#	36080
#	64757
#
# Disc length: 1176 seconds
#
# Revision: 2
# Processed by: cddbd v1.5PL3 Copyright (c) Steve Scherf et al.
# Submitted via: dBpowerAMP V4.0
#
DISCID=28049604
DTITLE=Lisa Moorish - I´m your Man
DYEAR=1996
DGENRE=Dance
TTITLE0=I´m your man (todd terry´s radio edit)
TTITLE1=I´m your man (original radio edit)
TTITLE2=I´m your man (todd terrys club mix)
TTITLE3=I´m your man (todd terrys freeze mix)
EXTD=
EXTT0=
EXTT1=
EXTT2=
EXTT3=
PLAYORDER=
